<svg width="61" height="58" viewBox="0 0 61 58" fill="none" xmlns="http://www.w3.org/2000/svg">
<path d="M60.0025 20C60.0025 20 60.0025 22.835 58.84 26.5625L45.885 13.61C45.1824 12.9065 44.2292 12.5109 43.235 12.51H31.7275C30.8889 12.5106 30.0747 12.7923 29.415 13.31L24.8725 16.865C24.5607 17.1093 24.2039 17.2897 23.8223 17.3959C23.4408 17.5021 23.0421 17.532 22.6489 17.4839C22.2558 17.4358 21.876 17.3107 21.5313 17.1157C21.1866 16.9207 20.8837 16.6597 20.64 16.3475C20.1475 15.7162 19.9255 14.9153 20.0225 14.1206C20.1195 13.3258 20.5277 12.6019 21.1575 12.1075L36.6575 0H40.0025C45.3068 0 50.3939 2.10714 54.1446 5.85787C57.8954 9.60859 60.0025 14.6957 60.0025 20ZM8.46249 28.325C8.21238 28.0743 7.91526 27.8753 7.58816 27.7396C7.26105 27.6039 6.91039 27.534 6.55624 27.534C6.20209 27.534 5.85142 27.6039 5.52432 27.7396C5.19721 27.8753 4.9001 28.0743 4.64999 28.325L0.789989 32.2C0.284061 32.7079 0 33.3956 0 34.1125C0 34.8294 0.284061 35.5171 0.789989 36.025C1.0401 36.2757 1.33721 36.4747 1.66432 36.6104C1.99142 36.7461 2.34209 36.816 2.69624 36.816C3.05039 36.816 3.40105 36.7461 3.72816 36.6104C4.05526 36.4747 4.35238 36.2757 4.60249 36.025L8.46249 32.15C8.96826 31.6425 9.25226 30.9552 9.25226 30.2388C9.25226 29.5223 8.96826 28.835 8.46249 28.3275M12.4525 33.55C12.7025 33.2986 12.9997 33.0991 13.3271 32.9629C13.6544 32.8268 14.0055 32.7567 14.36 32.7567C14.7145 32.7567 15.0656 32.8268 15.3929 32.9629C15.7203 33.0991 16.0175 33.2986 16.2675 33.55C16.7727 34.0578 17.0562 34.745 17.0562 35.4613C17.0562 36.1775 16.7727 36.8647 16.2675 37.3725L12.4025 41.24C12.1525 41.491 11.8555 41.6902 11.5284 41.8261C11.2012 41.9621 10.8505 42.032 10.4962 42.032C10.142 42.032 9.79125 41.9621 9.46412 41.8261C9.13699 41.6902 8.83993 41.491 8.58999 41.24C8.08482 40.7322 7.80124 40.045 7.80124 39.3288C7.80124 38.6125 8.08482 37.9253 8.58999 37.4175L12.4525 33.55ZM22.745 40.0425C22.4949 39.7918 22.1978 39.5928 21.8707 39.4571C21.5436 39.3214 21.1929 39.2515 20.8387 39.2515C20.4846 39.2515 20.1339 39.3214 19.8068 39.4571C19.4797 39.5928 19.1826 39.7918 18.9325 40.0425L15.0725 43.9125C14.566 44.4201 14.2815 45.1079 14.2815 45.825C14.2815 46.5421 14.566 47.2299 15.0725 47.7375C15.3224 47.9885 15.6195 48.1877 15.9466 48.3236C16.2737 48.4596 16.6245 48.5295 16.9787 48.5295C17.333 48.5295 17.6837 48.4596 18.0109 48.3236C18.338 48.1877 18.635 47.9885 18.885 47.7375L22.745 43.865C23.2509 43.3571 23.535 42.6694 23.535 41.9525C23.535 41.2356 23.2509 40.5504 22.745 40.0425ZM29.22 46.53C28.97 46.2786 28.6728 46.0791 28.3454 45.943C28.0181 45.8068 27.667 45.7367 27.3125 45.7367C26.958 45.7367 26.6069 45.8068 26.2795 45.943C25.9522 46.0791 25.655 46.2786 25.405 46.53L21.545 50.4025C21.0398 50.9103 20.7562 51.5975 20.7562 52.3138C20.7562 53.03 21.0398 53.7172 21.545 54.225C21.7949 54.476 22.092 54.6752 22.4191 54.8111C22.7462 54.9471 23.097 55.017 23.4512 55.017C23.8055 55.017 24.1562 54.9471 24.4834 54.8111C24.8105 54.6752 25.1075 54.476 25.3575 54.225L29.2175 50.3525C29.7233 49.845 30.0073 49.1577 30.0073 48.4413C30.0073 47.7248 29.7233 47.0375 29.2175 46.53M27.6 0.73C26.2831 0.341039 24.9275 0.0979139 23.5575 0.00499964L23.3325 0H22.5025C17.1982 0 12.1111 2.10714 8.36035 5.85787C4.60963 9.60859 2.50249 14.6957 2.50249 20V25.2175C3.73831 24.212 5.30365 23.7015 6.89466 23.7851C8.48567 23.8687 9.98887 24.5405 11.1125 25.67C12.095 26.6575 12.695 27.885 12.91 29.165C13.8584 28.9477 14.8438 28.9479 15.7922 29.1654C16.7406 29.383 17.6274 29.8123 18.3864 30.4212C19.1454 31.0301 19.7567 31.8028 20.1747 32.6815C20.5927 33.5601 20.8065 34.522 20.8 35.495C21.6529 35.491 22.4982 35.6562 23.2868 35.9811C24.0754 36.306 24.7918 36.784 25.3945 37.3876C25.9971 37.9912 26.4741 38.7083 26.7977 39.4974C27.1214 40.2866 27.2853 41.1321 27.28 41.985C28.1309 41.9809 28.9742 42.1458 29.7608 42.4703C30.5475 42.7947 31.2619 43.2722 31.8625 43.875C33.0701 45.0884 33.748 46.7306 33.748 48.4425C33.748 50.1544 33.0701 51.7966 31.8625 53.01L31.3 53.575L34.485 56.735C34.99 57.232 35.6702 57.5105 36.3787 57.5105C37.0873 57.5105 37.7674 57.232 38.2725 56.735C39.3075 55.71 39.31 54.05 38.2775 53.0225C37.9228 52.6708 37.7223 52.1925 37.7202 51.693C37.7181 51.1934 37.9145 50.7135 38.2662 50.3588C38.618 50.004 39.0962 49.8036 39.5958 49.8014C40.0953 49.7993 40.5753 49.9958 40.93 50.3475C41.435 50.8445 42.1152 51.123 42.8237 51.123C43.5323 51.123 44.2124 50.8445 44.7175 50.3475C44.9633 50.1047 45.1585 49.8156 45.2918 49.4968C45.4252 49.1781 45.4939 48.836 45.4942 48.4905C45.4944 48.145 45.4261 47.8029 45.2932 47.484C45.1603 47.165 44.9655 46.8756 44.72 46.6325C44.3876 46.2762 44.2061 45.8051 44.2135 45.3179C44.221 44.8307 44.4167 44.3654 44.7598 44.0194C45.1029 43.6734 45.5666 43.4737 46.0537 43.4622C46.5408 43.4506 47.0134 43.6282 47.3725 43.9575C47.8781 44.4531 48.5581 44.7302 49.266 44.7293C49.974 44.7283 50.6532 44.4494 51.1575 43.9525C52.2175 42.9025 52.2125 41.1975 51.2 40.19L51.1925 40.185L45.56 34.55C45.2288 34.1946 45.0485 33.7244 45.0571 33.2387C45.0656 32.7529 45.2624 32.2895 45.6059 31.9459C45.9495 31.6024 46.4129 31.4056 46.8987 31.3971C47.3844 31.3885 47.8546 31.5688 48.21 31.9L54.8 38.4825C56.1175 39.79 58.29 39.8025 59.4325 38.67C60.57 37.5425 60.56 35.4025 59.255 34.105L59.25 34.1L42.66 17.5125H32.16L27.955 20.8025C27.1261 21.4511 26.1776 21.9301 25.1635 22.212C24.1495 22.4939 23.0899 22.5733 22.0451 22.4456C21.0004 22.3179 19.9911 21.9857 19.0748 21.4678C18.1585 20.95 17.3533 20.2567 16.705 19.4275C15.3951 17.7516 14.8042 15.6243 15.062 13.5129C15.3199 11.4016 16.4054 9.47894 18.08 8.1675L27.6 0.73Z" fill="#914C30"/>
</svg>
